# xmcd CD database file
#
# Track frame offsets:
#	150
#	27097
#	48729
#	64018
#	83867
#	98824
#	113410
#	132531
#	149561
#	170262
#	184528
#	211778
#
# Disc length: 3292 seconds
#
# Revision: 0
# Processed by: cddbd v1.5.1PL0 Copyright (c) Steve Scherf et al.
# Submitted via: CDex 1.50
#
DISCID=a10cda0c
DTITLE=LSK - OUTLAW
DYEAR=2003
DGENRE=Pop
TTITLE0=THE TAKEOVER
TTITLE1=70'S 80'S
TTITLE2=STICK TO YA GUNS
TTITLE3=RUMOURS 'N' LIES
TTITLE4=SOUND SYSTEM
TTITLE5=AIN'TNOBIG THING
TTITLE6=RAP STAR
TTITLE7=TEST ME
TTITLE8=WALKING IN THE SUNSHINE
TTITLE9=LIFE WITHOUT YOU
TTITLE10=STRAIGHT TO HELL
TTITLE11=W.I.C.LS7/I WANTED YA
EXTD=YEAR: 2003
EXTT0=
EXTT1=
EXTT2=
EXTT3=
EXTT4=
EXTT5=
EXTT6=
EXTT7=
EXTT8=
EXTT9=
EXTT10=
EXTT11=
PLAYORDER=
